<svg id="Logo" xmlns="http://www.w3.org/2000/svg" viewBox="0 0 511.12 498.5"><defs><style>.cls-1,.cls-2{fill:#181616;}.cls-1{fill-rule:evenodd;}</style></defs><title>github</title><path class="cls-1" d="M255.56,5.75C114.44,5.75,0,120.16,0,261.31,0,374.22,73.23,470,174.77,503.81c12.77,2.36,17.46-5.55,17.46-12.3,0-6.09-.24-26.23-.35-47.58-71.1,15.46-86.1-30.15-86.1-30.15-11.63-29.54-28.38-37.39-28.38-37.39-23.19-15.86,1.75-15.54,1.75-15.54,25.66,1.8,39.18,26.34,39.18,26.34,22.79,39.07,59.78,27.77,74.37,21.24,2.29-16.51,8.91-27.79,16.23-34.17C152.16,367.8,92.49,345.88,92.49,248c0-27.9,10-50.7,26.33-68.6-2.65-6.44-11.4-32.43,2.48-67.63,0,0,21.46-6.86,70.29,26.2a242.33,242.33,0,0,1,128,0c48.78-33.06,70.21-26.2,70.21-26.2,13.91,35.2,5.16,61.19,2.51,67.63,16.39,17.9,26.3,40.7,26.3,68.6,0,98.16-59.78,119.77-116.69,126.1,9.17,7.93,17.33,23.48,17.33,47.33,0,34.19-.29,61.72-.29,70.13,0,6.8,4.6,14.77,17.55,12.26C438,469.95,511.12,374.18,511.12,261.31,511.12,120.16,396.7,5.75,255.56,5.75Z" transform="translate(0 -5.75)"/><path class="cls-2" d="M96.79,372.68c-.56,1.27-2.56,1.65-4.38.78s-2.89-2.57-2.29-3.84,2.55-1.67,4.4-.8,2.91,2.58,2.27,3.86Zm-3.15-2.33" transform="translate(0 -5.75)"/><path class="cls-2" d="M107.15,384.22c-1.22,1.13-3.6.6-5.22-1.18s-2-4.17-.75-5.31,3.57-.6,5.24,1.18,2,4.17.73,5.31Zm-2.44-2.62" transform="translate(0 -5.75)"/><path class="cls-2" d="M117.22,398.94c-1.57,1.09-4.13.07-5.71-2.2s-1.57-5,0-6.09,4.11-.11,5.71,2.14,1.56,5,0,6.15Zm0,0" transform="translate(0 -5.75)"/><path class="cls-2" d="M131,413.16c-1.4,1.55-4.39,1.13-6.57-1s-2.86-5-1.45-6.53,4.42-1.11,6.62,1,2.89,5,1.4,6.53Zm0,0" transform="translate(0 -5.75)"/><path class="cls-2" d="M150.07,421.42c-.62,2-3.49,2.91-6.39,2.06s-4.78-3.22-4.2-5.24,3.49-3,6.4-2.05,4.78,3.2,4.18,5.24Zm0,0" transform="translate(0 -5.75)"/><path class="cls-2" d="M171,422.95c.07,2.11-2.38,3.86-5.42,3.89S160,425.2,160,423.13s2.4-3.86,5.46-3.91,5.53,1.64,5.53,3.73Zm0,0" transform="translate(0 -5.75)"/><path class="cls-2" d="M190.45,419.64c.36,2.05-1.75,4.17-4.77,4.73s-5.71-.73-6.09-2.76,1.78-4.22,4.74-4.77,5.73.71,6.11,2.8Zm0,0" transform="translate(0 -5.75)"/></svg>